<mxfile host="app.diagrams.net" modified="2021-10-06T10:53:51.770Z" agent="5.0 (X11; Linux x86_64) AppleWebKit/537.36 (KHTML, like Gecko) Chrome/94.0.4606.71 Safari/537.36" etag="MUekCHohW8rdkXt2cq1b" version="15.4.1" type="github">
  <diagram id="A0cREO2OqiJ5S0DFW64K" name="Page-1">
    <mxGraphModel dx="1262" dy="499" grid="1" gridSize="10" guides="1" tooltips="1" connect="1" arrows="1" fold="1" page="1" pageScale="1" pageWidth="827" pageHeight="1169" math="0" shadow="0">
      <root>
        <mxCell id="0" />
        <mxCell id="1" parent="0" />
        <mxCell id="FXpS3rSKyks8bhcQrzJX-5" value="" style="edgeStyle=orthogonalEdgeStyle;rounded=0;orthogonalLoop=1;jettySize=auto;html=1;" edge="1" parent="1" source="FXpS3rSKyks8bhcQrzJX-1" target="FXpS3rSKyks8bhcQrzJX-4">
          <mxGeometry relative="1" as="geometry" />
        </mxCell>
        <mxCell id="FXpS3rSKyks8bhcQrzJX-1" value="? padre(Y,X)" style="text;html=1;strokeColor=none;fillColor=none;align=center;verticalAlign=middle;whiteSpace=wrap;rounded=0;" vertex="1" parent="1">
          <mxGeometry x="390" y="40" width="90" height="30" as="geometry" />
        </mxCell>
        <mxCell id="FXpS3rSKyks8bhcQrzJX-3" value="1- hijo(luisPerez, josePerez).&lt;br&gt;2- hijo(mariaPerez, josePerez).&lt;br&gt;3- hijo(miguelPerez, josePerez).&lt;br&gt;4- hijo(luisPerez, lolaPerez).&lt;br&gt;5- hombre(lolaPerez).&lt;br&gt;6- hijo(X, Y) ∧ hombre(Y) → padre(Y, X)" style="text;html=1;align=left;verticalAlign=middle;resizable=0;points=[];autosize=1;strokeColor=none;fillColor=none;" vertex="1" parent="1">
          <mxGeometry x="690" y="40" width="230" height="90" as="geometry" />
        </mxCell>
        <mxCell id="FXpS3rSKyks8bhcQrzJX-10" value="" style="edgeStyle=orthogonalEdgeStyle;rounded=0;orthogonalLoop=1;jettySize=auto;html=1;" edge="1" parent="1" source="FXpS3rSKyks8bhcQrzJX-4" target="FXpS3rSKyks8bhcQrzJX-9">
          <mxGeometry relative="1" as="geometry" />
        </mxCell>
        <mxCell id="FXpS3rSKyks8bhcQrzJX-15" value="" style="edgeStyle=orthogonalEdgeStyle;rounded=0;orthogonalLoop=1;jettySize=auto;html=1;" edge="1" parent="1" source="FXpS3rSKyks8bhcQrzJX-4" target="FXpS3rSKyks8bhcQrzJX-14">
          <mxGeometry relative="1" as="geometry" />
        </mxCell>
        <mxCell id="FXpS3rSKyks8bhcQrzJX-20" style="edgeStyle=orthogonalEdgeStyle;rounded=0;orthogonalLoop=1;jettySize=auto;html=1;exitX=1;exitY=1;exitDx=0;exitDy=0;" edge="1" parent="1" source="FXpS3rSKyks8bhcQrzJX-4">
          <mxGeometry relative="1" as="geometry">
            <mxPoint x="770.0000000000002" y="300" as="targetPoint" />
            <Array as="points">
              <mxPoint x="770" y="180" />
            </Array>
          </mxGeometry>
        </mxCell>
        <mxCell id="FXpS3rSKyks8bhcQrzJX-25" style="edgeStyle=orthogonalEdgeStyle;rounded=0;orthogonalLoop=1;jettySize=auto;html=1;exitX=1;exitY=0.5;exitDx=0;exitDy=0;" edge="1" parent="1" source="FXpS3rSKyks8bhcQrzJX-4">
          <mxGeometry relative="1" as="geometry">
            <mxPoint x="1102.2857142857142" y="300" as="targetPoint" />
          </mxGeometry>
        </mxCell>
        <mxCell id="FXpS3rSKyks8bhcQrzJX-4" value="? hijo(X&#39;,Y&#39;),&lt;span style=&quot;text-align: left&quot;&gt;hombre(Y&#39;)&lt;/span&gt;" style="text;html=1;strokeColor=none;fillColor=none;align=center;verticalAlign=middle;whiteSpace=wrap;rounded=0;" vertex="1" parent="1">
          <mxGeometry x="360" y="150" width="150" height="30" as="geometry" />
        </mxCell>
        <mxCell id="FXpS3rSKyks8bhcQrzJX-8" value="{X -&amp;gt; X&#39;,Y -&amp;gt; &#39;Y}" style="text;html=1;align=center;verticalAlign=middle;resizable=0;points=[];autosize=1;strokeColor=none;fillColor=none;" vertex="1" parent="1">
          <mxGeometry x="320" y="90" width="100" height="20" as="geometry" />
        </mxCell>
        <mxCell id="FXpS3rSKyks8bhcQrzJX-13" value="" style="edgeStyle=orthogonalEdgeStyle;rounded=0;orthogonalLoop=1;jettySize=auto;html=1;" edge="1" parent="1" source="FXpS3rSKyks8bhcQrzJX-9" target="FXpS3rSKyks8bhcQrzJX-12">
          <mxGeometry relative="1" as="geometry">
            <Array as="points">
              <mxPoint x="240" y="390" />
              <mxPoint x="240" y="390" />
            </Array>
          </mxGeometry>
        </mxCell>
        <mxCell id="FXpS3rSKyks8bhcQrzJX-9" value="&lt;div style=&quot;text-align: center&quot;&gt;&lt;span style=&quot;text-align: left&quot;&gt;? [],hombre(josePerez)&lt;/span&gt;&lt;/div&gt;" style="text;html=1;strokeColor=none;fillColor=none;align=center;verticalAlign=middle;whiteSpace=wrap;rounded=0;" vertex="1" parent="1">
          <mxGeometry x="140" y="300" width="150" height="30" as="geometry" />
        </mxCell>
        <mxCell id="FXpS3rSKyks8bhcQrzJX-11" value="1) {X&#39; -&amp;gt; luisPerez,Y&#39; -&amp;gt; josePerez}" style="text;html=1;align=center;verticalAlign=middle;resizable=0;points=[];autosize=1;strokeColor=none;fillColor=none;" vertex="1" parent="1">
          <mxGeometry x="5" y="210" width="200" height="20" as="geometry" />
        </mxCell>
        <mxCell id="FXpS3rSKyks8bhcQrzJX-12" value="FAIL" style="text;html=1;strokeColor=none;fillColor=none;align=center;verticalAlign=middle;whiteSpace=wrap;rounded=0;" vertex="1" parent="1">
          <mxGeometry x="160" y="410" width="150" height="30" as="geometry" />
        </mxCell>
        <mxCell id="FXpS3rSKyks8bhcQrzJX-17" style="edgeStyle=orthogonalEdgeStyle;rounded=0;orthogonalLoop=1;jettySize=auto;html=1;exitX=0.75;exitY=1;exitDx=0;exitDy=0;" edge="1" parent="1" source="FXpS3rSKyks8bhcQrzJX-14">
          <mxGeometry relative="1" as="geometry">
            <mxPoint x="472.16666666666674" y="410" as="targetPoint" />
          </mxGeometry>
        </mxCell>
        <mxCell id="FXpS3rSKyks8bhcQrzJX-14" value="&lt;div style=&quot;text-align: center&quot;&gt;&lt;span style=&quot;text-align: left&quot;&gt;? [],hombre(josePerez)&lt;/span&gt;&lt;/div&gt;" style="text;html=1;strokeColor=none;fillColor=none;align=center;verticalAlign=middle;whiteSpace=wrap;rounded=0;" vertex="1" parent="1">
          <mxGeometry x="360" y="300" width="150" height="30" as="geometry" />
        </mxCell>
        <mxCell id="FXpS3rSKyks8bhcQrzJX-16" value="2) {X&#39; -&amp;gt; mariaPerez,Y&#39; -&amp;gt; josePerez}" style="text;html=1;align=center;verticalAlign=middle;resizable=0;points=[];autosize=1;strokeColor=none;fillColor=none;" vertex="1" parent="1">
          <mxGeometry x="225" y="210" width="210" height="20" as="geometry" />
        </mxCell>
        <mxCell id="FXpS3rSKyks8bhcQrzJX-19" value="FAIL" style="text;html=1;align=center;verticalAlign=middle;resizable=0;points=[];autosize=1;strokeColor=none;fillColor=none;" vertex="1" parent="1">
          <mxGeometry x="450" y="410" width="40" height="20" as="geometry" />
        </mxCell>
        <mxCell id="FXpS3rSKyks8bhcQrzJX-24" value="" style="edgeStyle=orthogonalEdgeStyle;rounded=0;orthogonalLoop=1;jettySize=auto;html=1;" edge="1" parent="1" source="FXpS3rSKyks8bhcQrzJX-21" target="FXpS3rSKyks8bhcQrzJX-23">
          <mxGeometry relative="1" as="geometry" />
        </mxCell>
        <mxCell id="FXpS3rSKyks8bhcQrzJX-21" value="? [],hombre(josePerez)" style="text;html=1;align=center;verticalAlign=middle;resizable=0;points=[];autosize=1;strokeColor=none;fillColor=none;" vertex="1" parent="1">
          <mxGeometry x="700" y="300" width="140" height="20" as="geometry" />
        </mxCell>
        <mxCell id="FXpS3rSKyks8bhcQrzJX-22" value="3) {X&#39; -&amp;gt; miguelPerez,Y&#39; -&amp;gt; josePerez}" style="text;html=1;align=center;verticalAlign=middle;resizable=0;points=[];autosize=1;strokeColor=none;fillColor=none;" vertex="1" parent="1">
          <mxGeometry x="540" y="210" width="220" height="20" as="geometry" />
        </mxCell>
        <mxCell id="FXpS3rSKyks8bhcQrzJX-23" value="FAIL" style="text;html=1;align=center;verticalAlign=middle;resizable=0;points=[];autosize=1;strokeColor=none;fillColor=none;" vertex="1" parent="1">
          <mxGeometry x="750" y="400" width="40" height="20" as="geometry" />
        </mxCell>
        <mxCell id="FXpS3rSKyks8bhcQrzJX-26" value="4) {X&#39; -&amp;gt; miguelPerez,Y&#39; -&amp;gt; josePerez}" style="text;html=1;align=center;verticalAlign=middle;resizable=0;points=[];autosize=1;strokeColor=none;fillColor=none;" vertex="1" parent="1">
          <mxGeometry x="890" y="210" width="220" height="20" as="geometry" />
        </mxCell>
        <mxCell id="FXpS3rSKyks8bhcQrzJX-29" value="" style="edgeStyle=orthogonalEdgeStyle;rounded=0;orthogonalLoop=1;jettySize=auto;html=1;" edge="1" parent="1" source="FXpS3rSKyks8bhcQrzJX-27" target="FXpS3rSKyks8bhcQrzJX-28">
          <mxGeometry relative="1" as="geometry" />
        </mxCell>
        <mxCell id="FXpS3rSKyks8bhcQrzJX-27" value="? [],hombre(lolaPerez)" style="text;html=1;align=center;verticalAlign=middle;resizable=0;points=[];autosize=1;strokeColor=none;fillColor=none;" vertex="1" parent="1">
          <mxGeometry x="1035" y="300" width="130" height="20" as="geometry" />
        </mxCell>
        <mxCell id="FXpS3rSKyks8bhcQrzJX-28" value="?[]" style="text;html=1;align=center;verticalAlign=middle;resizable=0;points=[];autosize=1;strokeColor=none;fillColor=none;" vertex="1" parent="1">
          <mxGeometry x="1085" y="400" width="30" height="20" as="geometry" />
        </mxCell>
        <mxCell id="FXpS3rSKyks8bhcQrzJX-31" value="EXITO" style="text;html=1;align=center;verticalAlign=middle;resizable=0;points=[];autosize=1;strokeColor=none;fillColor=none;" vertex="1" parent="1">
          <mxGeometry x="1075" y="430" width="50" height="20" as="geometry" />
        </mxCell>
        <mxCell id="FXpS3rSKyks8bhcQrzJX-32" value="{X -&amp;gt; X&#39;} * {X&#39; -&amp;gt; miguelPerez,Y&#39;-&amp;gt;josePerez}" style="text;html=1;align=center;verticalAlign=middle;resizable=0;points=[];autosize=1;strokeColor=none;fillColor=none;" vertex="1" parent="1">
          <mxGeometry x="215" y="490" width="250" height="20" as="geometry" />
        </mxCell>
        <mxCell id="FXpS3rSKyks8bhcQrzJX-33" value="5) {}" style="text;html=1;align=center;verticalAlign=middle;resizable=0;points=[];autosize=1;strokeColor=none;fillColor=none;" vertex="1" parent="1">
          <mxGeometry x="1105" y="350" width="40" height="20" as="geometry" />
        </mxCell>
        <mxCell id="FXpS3rSKyks8bhcQrzJX-34" value="X = lolaPerez, Y = luisPerez" style="text;html=1;align=center;verticalAlign=middle;resizable=0;points=[];autosize=1;strokeColor=none;fillColor=none;" vertex="1" parent="1">
          <mxGeometry x="235" y="530" width="160" height="20" as="geometry" />
        </mxCell>
        <mxCell id="FXpS3rSKyks8bhcQrzJX-35" value="CORREGIR" style="text;html=1;align=center;verticalAlign=middle;resizable=0;points=[];autosize=1;strokeColor=none;fillColor=none;" vertex="1" parent="1">
          <mxGeometry x="550" y="470" width="80" height="20" as="geometry" />
        </mxCell>
      </root>
    </mxGraphModel>
  </diagram>
</mxfile>
